<svg xmlns="http://www.w3.org/2000/svg" viewBox="0 0 880 190" width="880" height="190" role="img" aria-label="Petrolio palette">
  <title>Petrolio — palette</title>
  <rect width="880" height="190" rx="12" fill="#12262c"/>

  <text x="24" y="34" font-family="Inter, Helvetica, Arial, sans-serif" font-size="15"
        font-weight="600" fill="#e9f3f0" letter-spacing="2.4">PETROLIO</text>
  <text x="24" y="54" font-family="Inter, Helvetica, Arial, sans-serif" font-size="11"
        fill="#b4d0cd">Home Assistant theme · wallpapers.robertobonfa.com</text>

  <g font-family="ui-monospace, SFMono-Regular, Menlo, monospace" font-size="10" fill="#b4d0cd">
    <g>
      <rect x="24"  y="72" width="98" height="52" rx="6" fill="#12262c" stroke="#2c545c" stroke-width="1"/>
      <text x="32" y="140">#12262c</text>
    </g>
    <rect x="130" y="72" width="98" height="52" rx="6" fill="#1d3c44"/>
    <text x="138" y="140">#1d3c44</text>

    <rect x="236" y="72" width="98" height="52" rx="6" fill="#2c545c"/>
    <text x="244" y="140">#2c545c</text>

    <rect x="342" y="72" width="98" height="52" rx="6" fill="#417076"/>
    <text x="350" y="140">#417076</text>

    <rect x="448" y="72" width="98" height="52" rx="6" fill="#5d8d90"/>
    <text x="456" y="140">#5d8d90</text>

    <rect x="554" y="72" width="98" height="52" rx="6" fill="#83aeae"/>
    <text x="562" y="140">#83aeae</text>

    <rect x="660" y="72" width="98" height="52" rx="6" fill="#b4d0cd"/>
    <text x="668" y="140">#b4d0cd</text>

    <rect x="766" y="72" width="90" height="52" rx="6" fill="#e9f3f0"/>
    <text x="774" y="140">#e9f3f0</text>
  </g>

  <g font-family="ui-monospace, SFMono-Regular, Menlo, monospace" font-size="9">
    <rect x="24"  y="152" width="26" height="14" rx="4" fill="#d9646a"/>
    <text x="56"  y="163" fill="#b4d0cd">error</text>
    <rect x="112" y="152" width="26" height="14" rx="4" fill="#e0ad55"/>
    <text x="144" y="163" fill="#b4d0cd">warning</text>
    <rect x="212" y="152" width="26" height="14" rx="4" fill="#7fbf7a"/>
    <text x="244" y="163" fill="#b4d0cd">success</text>
    <rect x="312" y="152" width="26" height="14" rx="4" fill="#edc96a"/>
    <text x="344" y="163" fill="#b4d0cd">light on</text>
  </g>
</svg>
