<svg xmlns="http://www.w3.org/2000/svg" viewBox="0 0 880 190" width="880" height="190" role="img" aria-label="Neon palette">
  <title>Neon — palette</title>
  <rect width="880" height="190" rx="12" fill="#0d0221"/>

  <text x="24" y="34" font-family="Inter, Helvetica, Arial, sans-serif" font-size="15"
        font-weight="600" fill="#ffd3e8" letter-spacing="2.4">NEON</text>
  <text x="24" y="54" font-family="Inter, Helvetica, Arial, sans-serif" font-size="11"
        fill="#ff7ab6">Home Assistant theme · wallpapers.robertobonfa.com</text>

  <g font-family="ui-monospace, SFMono-Regular, Menlo, monospace" font-size="10" fill="#ff7ab6">
    <g>
      <rect x="24"  y="72" width="98" height="52" rx="6" fill="#0d0221" stroke="#6a0dad" stroke-width="1"/>
      <text x="32" y="140">#0d0221</text>
    </g>
    <rect x="130" y="72" width="98" height="52" rx="6" fill="#33095e"/>
    <text x="138" y="140">#33095e</text>

    <rect x="236" y="72" width="98" height="52" rx="6" fill="#6a0dad"/>
    <text x="244" y="140">#6a0dad</text>

    <rect x="342" y="72" width="98" height="52" rx="6" fill="#a319c4"/>
    <text x="350" y="140">#a319c4</text>

    <rect x="448" y="72" width="98" height="52" rx="6" fill="#e01e84"/>
    <text x="456" y="140">#e01e84</text>

    <rect x="554" y="72" width="98" height="52" rx="6" fill="#ff2079"/>
    <text x="562" y="140">#ff2079</text>

    <rect x="660" y="72" width="98" height="52" rx="6" fill="#ff7ab6"/>
    <text x="668" y="140">#ff7ab6</text>

    <rect x="766" y="72" width="90" height="52" rx="6" fill="#ffd3e8"/>
    <text x="774" y="140">#ffd3e8</text>
  </g>

  <g font-family="ui-monospace, SFMono-Regular, Menlo, monospace" font-size="9">
    <rect x="24"  y="152" width="26" height="14" rx="4" fill="#ff3131"/>
    <text x="56"  y="163" fill="#ff7ab6">error</text>
    <rect x="112" y="152" width="26" height="14" rx="4" fill="#ffcc00"/>
    <text x="144" y="163" fill="#ff7ab6">warning</text>
    <rect x="212" y="152" width="26" height="14" rx="4" fill="#00f5a0"/>
    <text x="244" y="163" fill="#ff7ab6">success</text>
    <rect x="312" y="152" width="26" height="14" rx="4" fill="#fff275"/>
    <text x="344" y="163" fill="#ff7ab6">light on</text>
  </g>
</svg>
